DataType=double
version=3
OpenSimVersion=4.4-2022-07-23-0e9fedc
endheader
time	Glut_Max_l	Glut_Med_l	Rect_Fem_l	Vast_Lat_l	Bice_Fem_l	Tibi_Ant_l	Gast_Med_l	Sol_l	Gast_Lat_l	Pero_Lon_l	Glut_Max_r	Glut_Med_r	Rect_Fem_r	Vast_Lat_r	Bice_Fem_r	Tibi_Ant_r	Gast_Med_r	Sol_r	Gast_Lat_r	Pero_Lon_r
5.86	-0.01339912871586267	0.01984914319795978	0.01743533091420587	0.000365556185982444	0.05342943716370174	-0.05944977843537511	0.1018534611967431	-0.008698137997327956	-0.0003429897878941787	0.04083093122076829	0.009915704854296284	0.05473278275894312	-0.0108529409439612	0.04509800796379147	0.008547224609354302	0.02417052942400822	0.03430803486229681	0.01120928191125009	0.02446584732174665	0.009764891748300737
5.861000000000001	-0.009906564225842138	0.03062084370939164	0.02328227622026083	0.008291281095334646	0.05549007347594148	-0.05513061075871027	0.1069028079744309	-0.006474268234519689	0.004050057032657908	0.04241131370463828	0.01357324854036804	0.05612889852457307	-0.008854335830411023	0.04728152035799826	0.01018403936016756	0.02592845427891183	0.03543097176725736	0.01411478061531878	0.02561581859001667	0.01235334676348805
5.862	-0.006419980354581497	0.04135428984906533	0.02908650545912022	0.01617099975427241	0.05755213832588615	-0.05084903314896306	0.1119457161350511	-0.004264390039722833	0.008416786923784149	0.04399241673482689	0.01723162064633946	0.05755805099429118	-0.006869854653524817	0.04943766400096944	0.01183192476493352	0.02772010171643526	0.03655349906410334	0.01700761858773274	0.02677191966751151	0.01493971183250691
5.863	-0.002941455117987642	0.05204225889105771	0.03484386112650444	0.02399908127777678	0.05961466228016372	-0.04660787379064329	0.1169789515534137	-0.002069705159990064	0.0127544789232107	0.04557310860001271	0.02088892229603785	0.05902056440940201	-0.004900677561568431	0.05156558896889331	0.01349005440781478	0.02954497108126489	0.03767498293006065	0.01988622931786141	0.02793353078864894	0.01752243422885685
5.864	0.0005269442843743276	0.06267756379402353	0.04055022412194267	0.03176993699583353	0.0616766885357654	-0.04240990650055684	0.1219992985230824	0.0001086093958487439	0.01706044960149265	0.04715226076487584	0.02454326086454236	0.06051676586291044	-0.002947963409692975	0.05366451318537651	0.01515758926051379	0.03140253150456027	0.03879479371739722	0.02274907213704905	0.02910002701729813	0.02009997447386735
5.865	0.003983164372023997	0.07325306344429337	0.04620151947364935	0.03947802859084625	0.06373727472823176	-0.03825784622199833	0.1270035653660532	0.002269403079728752	0.02133205713479677	0.04872874997766675	0.02819275238299966	0.06204698571889025	-0.001012848033034307	0.05573372488117711	0.01683367860688227	0.0332922224102586	0.03991230696640921	0.02559463459689842	0.0302707791424858	0.02267080919636943
5.866000000000001	0.007425168234361349	0.08376167277972761	0.05179372198268935	0.04711787610846328	0.0657954947172382	-0.03415434468003591	0.1319885899944915	0.004411553463025271	0.02556670529484639	0.05030146032268946	0.03183552391435714	0.0636115580296971	0.000903557432518048	0.05777258493700423	0.0185174609844843	0.03521345406833361	0.04102690440077821	0.02842143478987998	0.0314451545763661	0.02523343395250359
5.867	0.01085093831979113	0.09419637276662185	0.05732286177360625	0.05468406581689679	0.06785044034350701	-0.03010198621522986	0.1369512454056673	0.006533967826865716	0.02976184734567072	0.05186928520337961	0.03546971589529235	0.06521082094890494	0.002800168177826672	0.0597805291014818	0.02020806514159242	0.03716560819405029	0.04213797490163174	0.03122802360645667	0.03262251825144769	0.02778636599471334
5.868	0.01425847915416479	0.1045502202043259	0.06278502973948058	0.06217125789356209	0.06990122315089756	-0.02610328381036609	0.1418884450929075	0.008635584680028169	0.03391498983789568	0.05343112924353221	0.03909348443975737	0.06684511713805322	0.004675927292640072	0.06175707007655819	0.02190461100823023	0.03914803859225686	0.04324491545702287	0.03401298692319062	0.03380223351437322	0.03032814698055481
5.869000000000001	0.01764581998057339	0.1148163573339267	0.06817638287022	0.06957419392159005	0.0719469760674076	-0.02216067532218082	0.1467971483568494	0.0107153752008747	0.03802369629213105	0.05498591009709512	0.04270500359972317	0.06851479416552422	0.006529807279104872	0.06370179946286901	0.02360621067998281	0.04116007184578371	0.04434713208394623	0.03677494771656616	0.03498366301377297	0.03285734561351392
5.87	0.02101101731386204	0.1249880212286923	0.07349314945364566	0.07688770418176429	0.07398685503866967	-0.01827651992791889	0.1516743655029122	0.01277234460026934	0.04208559076360059	0.05653256016012	0.04630246757897404	0.07022020489609099	0.008360811503770146	0.0656143895577585	0.02531196941338998	0.04320100804708879	0.04544404072043687	0.03951256809758814	0.03616616957984738	0.03537256020933691
5.871	0.02435215740467076	0.1350585529456179	0.07873163413965378	0.08410671472752404	0.07602004060736677	-0.0144530947947825	0.1565171629126502	0.01480553340290836	0.04609836128063577	0.05807002818121315	0.04988409289618753	0.07196170786986161	0.01016797558550142	0.0674945949988202	0.02702098663183557	0.04527012157238697	0.04653506808573264	0.04222455126255368	0.0373491170933924	0.03787242118249727
5.872	0.02766735860909805	0.1450214064197962	0.08388822285858172	0.09122625423215969	0.07804573943184989	-0.01069259197865415	0.1613226679782427	0.01681401864493894	0.05005976315005257	0.0595972807689126	0.05344812049396667	0.07373966766948839	0.01195036871695409	0.06934225424598153	0.02873235694096302	0.04736666189759875	0.04761965250685376	0.04490964335566631	0.03853187134201266	0.04035559344853131
5.873	0.03095477366107782	0.1548701570864076	0.08895938758602427	0.09824146059867034	0.08006318573713894	-0.006997115556837134	0.1660880738906466	0.01879691498616157	0.05396762212275794	0.06111330379596389	0.05699281779088644	0.0755544552746157	0.01370709491744237	0.07115729089536331	0.03044517115276743	0.04948985445552332	0.04869724471023273	0.04756663523933696	0.0397138008613153	0.04282077873910469
5.874000000000001	0.03421259184525206	0.164598510218385	0.09394169094765714	0.1051475873242228	0.08207164269142875	-0.003368678997990936	0.1708106442728989	0.02075337573551546	0.0578198374132199	0.06261710370158675	0.06051648067399277	0.07740644840262655	0.01543729421523589	0.07293971481838833	0.03215851731760731	0.05163890153366234	0.04976730857724391	0.05019436416816409	0.04089427775896281	0.04526671782763324
5.875	0.03743904106861234	0.1742003089706494	0.0988317906589195	0.11194000961268	0.08407040370120043	0.0001907972290236764	0.175487717650724	0.02268259378895443	0.06161438456673103	0.06410770869356151	0.0640174354295906	0.0792960318348233	0.01714014375755593	0.07468962311988227	0.03387148176343398	0.05381298321208741	0.05082932186267062	0.05279171536281793	0.04207267851957103	0.04769219266393113
5.876	0.04063238982957973	0.1836695421238823	0.1036264437954831	0.1186142302299564	0.08605879361809396	0.003679487807025622	0.1801167117529978	0.02458380247922742	0.06534931816869373	0.06558416985241987	0.06749404061053056	0.08122359772725973	0.01881485884680877	0.07640720090920214	0.0355831501415595	0.05601125834066714	0.05188277687529116	0.05535762348042626	0.04324838478856673	0.05009602841673649
